<svg width="38" height="38" viewBox="0 0 38 38" fill="none" xmlns="http://www.w3.org/2000/svg">
<g clip-path="url(#clip0_747_94)">
<path d="M16.2497 28.1666C16.7559 28.1666 17.1663 27.7562 17.1663 27.2499C17.1663 26.7437 16.7559 26.3333 16.2497 26.3333C15.7434 26.3333 15.333 26.7437 15.333 27.2499C15.333 27.7562 15.7434 28.1666 16.2497 28.1666Z" stroke="#6C7A87" stroke-width="2" stroke-linecap="round" stroke-linejoin="round"/>
<path d="M26.3337 28.1666C26.8399 28.1666 27.2503 27.7562 27.2503 27.2499C27.2503 26.7437 26.8399 26.3333 26.3337 26.3333C25.8274 26.3333 25.417 26.7437 25.417 27.2499C25.417 27.7562 25.8274 28.1666 26.3337 28.1666Z" stroke="#6C7A87" stroke-width="2" stroke-linecap="round" stroke-linejoin="round"/>
<path d="M8.91699 8.91675H12.5837L15.0403 21.1909C15.1242 21.6129 15.3537 21.992 15.6889 22.2619C16.0241 22.5317 16.4435 22.675 16.8737 22.6667H25.7837C26.2139 22.675 26.6332 22.5317 26.9684 22.2619C27.3036 21.992 27.5332 21.6129 27.617 21.1909L29.0837 13.5001H13.5003" stroke="#6C7A87" stroke-width="2" stroke-linecap="round" stroke-linejoin="round"/>
</g>
<defs>
<clipPath id="clip0_747_94">
<rect width="22" height="22" fill="white" transform="translate(8 8)"/>
</clipPath>
</defs>
</svg>
