<svg width="38" height="38" viewBox="0 0 38 38" fill="none" xmlns="http://www.w3.org/2000/svg">
<g clip-path="url(#clip0_747_66)">
<path d="M19.4984 28.5421C20.7167 28.5421 21.923 28.3021 23.0486 27.8359C24.1741 27.3697 25.1968 26.6863 26.0583 25.8249C26.9197 24.9634 27.6031 23.9407 28.0693 22.8152C28.5355 21.6896 28.7755 20.4833 28.7755 19.265C28.7755 18.0467 28.5355 16.8404 28.0693 15.7148C27.6031 14.5893 26.9197 13.5666 26.0583 12.7051C25.1968 11.8437 24.1741 11.1603 23.0486 10.6941C21.923 10.2279 20.7167 9.98794 19.4984 9.98794C17.038 9.98794 14.6783 10.9653 12.9385 12.7051C11.1987 14.4449 10.2213 16.8046 10.2213 19.265C10.2213 21.7254 11.1987 24.0851 12.9385 25.8249C14.6783 27.5647 17.038 28.5421 19.4984 28.5421V28.5421ZM19.4984 30.53C16.5107 30.53 13.6454 29.3432 11.5328 27.2306C9.42024 25.118 8.2334 22.2527 8.2334 19.265C8.2334 16.2773 9.42024 13.412 11.5328 11.2994C13.6454 9.18685 16.5107 8 19.4984 8C22.4861 8 25.3514 9.18685 27.464 11.2994C29.5766 13.412 30.7634 16.2773 30.7634 19.265C30.7634 22.2527 29.5766 25.118 27.464 27.2306C25.3514 29.3432 22.4861 30.53 19.4984 30.53V30.53ZM18.083 20.2325C18.0789 20.0893 18.1031 19.9468 18.1543 19.8131C18.2055 19.6793 18.2826 19.557 18.3812 19.4532C18.4778 19.3504 18.595 19.2693 18.7252 19.2152C18.8554 19.161 18.9956 19.1351 19.1366 19.1391C19.9092 19.1391 20.5282 18.9536 20.9973 18.5838C21.4651 18.214 21.6997 17.6415 21.6997 16.8649C21.6997 16.2685 21.4877 15.7728 21.0675 15.3792C20.6461 14.9843 20.12 14.7882 19.4878 14.7882C18.8437 14.7882 18.2765 15.0082 17.7848 15.4508C17.5038 15.7132 17.2109 15.8444 16.9074 15.8444C16.6895 15.8459 16.4781 15.7698 16.3111 15.6297C16.0062 15.3912 15.8538 15.1102 15.8538 14.7882C15.8538 14.5125 15.9652 14.262 16.1878 14.0354C16.6143 13.5908 17.1268 13.2377 17.6941 12.9975C18.2615 12.7574 18.8717 12.6352 19.4878 12.6385C20.283 12.6385 21.0092 12.8241 21.6639 13.1938C22.32 13.5649 22.8408 14.0738 23.2265 14.7245C23.6121 15.3753 23.8056 16.0896 23.8056 16.8649C23.8056 18.0113 23.4836 18.9191 22.8408 19.587C22.1967 20.2563 21.3432 20.6738 20.2777 20.8408C20.2194 20.8646 20.1902 20.8938 20.1902 20.9309V21.5935C20.1941 21.7368 20.1697 21.8793 20.1183 22.0131C20.0669 22.1468 19.9895 22.2691 19.8907 22.3728C19.794 22.4753 19.6767 22.5562 19.5465 22.6101C19.4163 22.664 19.2761 22.6897 19.1353 22.6856C18.9946 22.6896 18.8547 22.6637 18.7248 22.6098C18.5948 22.5559 18.4777 22.4752 18.3812 22.3728C18.2826 22.269 18.2055 22.1467 18.1543 22.0129C18.1031 21.8792 18.0789 21.7367 18.083 21.5935V20.2325V20.2325ZM19.0491 25.8915C18.7098 25.8915 18.4488 25.7987 18.2672 25.6132C18.0856 25.4276 17.9955 25.1626 17.9955 24.818V24.5132C17.9955 24.1659 18.0856 23.9009 18.2672 23.7153C18.4488 23.5298 18.7098 23.437 19.0491 23.437H19.2771C19.6164 23.437 19.8761 23.5298 20.059 23.7153C20.2392 23.9009 20.3294 24.1659 20.3294 24.5118V24.8167C20.3294 25.1626 20.2392 25.4289 20.0577 25.6145C19.8761 25.8 19.6163 25.8915 19.2757 25.8915H19.0491V25.8915Z" fill="#6C7A87"/>
</g>
<defs>
<clipPath id="clip0_747_66">
<rect width="38" height="38" fill="white"/>
</clipPath>
</defs>
</svg>
