<svg width="28" height="29" viewBox="0 0 28 29" fill="none" xmlns="http://www.w3.org/2000/svg">
<path d="M20.249 2.24057C20.2517 1.77768 20.2517 0.73877 19.4967 0.73877H8.40046C7.64505 0.73877 7.64505 1.77768 7.64776 2.24057C7.65046 2.67597 7.64506 3.74598 8.40046 3.74282H19.4967C20.2517 3.74598 20.2467 2.67597 20.249 2.24057Z" fill="#485563"/>
<path d="M20.2491 2.27548C20.2518 1.81259 20.2518 0.773682 19.4968 0.773682H8.40047C7.64506 0.773682 7.64506 1.8126 7.64776 2.27548C7.65046 2.71088 7.64506 3.7809 8.40047 3.77774H19.4968C20.2518 3.7809 20.2468 2.71088 20.2491 2.27548Z" fill="#B086B7"/>
<path d="M23.0105 13.4415C22.6171 12.1578 22.0275 11.0671 21.2415 10.1684C20.4554 9.26913 19.4728 8.58447 18.2938 8.11394C17.1147 7.64341 15.7318 7.40771 14.1453 7.40771C12.5015 7.40771 11.0651 7.67224 9.83598 8.19956C8.60689 8.72741 7.58144 9.46931 6.75934 10.4252C5.93723 11.3812 5.32289 12.5188 4.9159 13.8372C4.50848 15.1578 4.30469 16.6019 4.30469 18.1709C4.30469 19.7976 4.49764 21.2525 4.88345 22.5357C5.26974 23.8203 5.85521 24.9115 6.64171 25.8097C7.42734 26.7084 8.41037 27.394 9.58944 27.8646C10.7685 28.3351 12.1518 28.5704 13.7379 28.5704C15.3672 28.5704 16.8001 28.3026 18.0364 27.7681C19.2727 27.2331 20.3017 26.4876 21.1239 25.5316C21.9455 24.5766 22.5634 23.4385 22.9781 22.1188C23.3923 20.8 23.6001 19.3549 23.6001 17.7855C23.6001 16.1742 23.4031 14.726 23.0105 13.4415ZM19.5873 21.0812C19.3565 22.0088 18.996 22.807 18.5056 23.4781C18.0152 24.1479 17.3882 24.6689 16.6238 25.0399C15.8594 25.4112 14.958 25.596 13.9199 25.596C12.7801 25.596 11.8286 25.3928 11.0642 24.9863C10.2997 24.5797 9.69083 24.0303 9.23653 23.3389C8.78218 22.647 8.45767 21.8375 8.26296 20.9099C8.06781 19.9832 7.9713 18.9912 7.9713 17.9356C7.9713 16.8376 8.08987 15.8244 8.32782 14.8973C8.5654 13.9697 8.92957 13.1674 9.42041 12.4896C9.9103 11.8126 10.5341 11.2879 11.2913 10.9174C12.0481 10.5461 12.9536 10.3613 14.0061 10.3613C15.1454 10.3613 16.0974 10.5645 16.8618 10.9706C17.6263 11.3772 18.232 11.9302 18.6791 12.6289C19.1258 13.3279 19.4467 14.141 19.6419 15.0685C19.8366 15.9962 19.9339 16.9801 19.9339 18.0213C19.9339 19.1341 19.8181 20.1545 19.5873 21.0812Z" fill="#A3A9AD"/>
</svg>
