<svg width="38" height="38" viewBox="0 0 38 38" fill="none" xmlns="http://www.w3.org/2000/svg">
<path d="M11.1361 27.86L11.1361 27.86H11.142H28.278C28.7206 27.86 29.084 27.4966 29.084 27.054V25.83C29.084 25.0234 28.6581 24.3421 28.0533 23.7974C27.4497 23.2539 26.6276 22.8067 25.7193 22.4514C23.9009 21.74 21.6205 21.352 19.7124 21.352H19.7088C18.1302 21.352 15.704 21.6525 13.5931 22.502L13.5928 22.5021C13.0244 22.7312 12.2371 23.1041 11.5835 23.6263C10.9392 24.1413 10.336 24.8749 10.336 25.83V27.054H10.336L10.336 27.0599C10.3385 27.2713 10.4236 27.4734 10.5731 27.6229C10.7226 27.7724 10.9247 27.8575 11.1361 27.86ZM19.7104 10.336L19.7096 10.336C18.6846 10.3367 17.7018 10.7443 16.977 11.469C16.2523 12.1938 15.8447 13.1766 15.844 14.2016L15.844 14.2024C15.8447 15.2274 16.2523 16.2102 16.977 16.935C17.7018 17.6597 18.6846 18.0673 19.7096 18.068H19.7104C20.7354 18.0673 21.7182 17.6597 22.443 16.935C23.1677 16.2102 23.5753 15.2274 23.576 14.2024L23.576 14.2016C23.5753 13.1766 23.1677 12.1938 22.443 11.469C21.7182 10.7443 20.7354 10.3367 19.7104 10.336ZM9.5 25.83C9.5 23.9606 11.0305 22.6273 13.2324 21.7389C15.4017 20.8636 18.0139 20.516 19.7124 20.516C21.4097 20.516 24.0206 20.8642 26.189 21.7397C28.3901 22.6285 29.92 23.9618 29.92 25.83V27.054C29.92 27.959 29.183 28.696 28.278 28.696H11.142C10.237 28.696 9.5 27.959 9.5 27.054V25.83ZM23.0334 17.5254C22.1519 18.4069 20.9567 18.9027 19.7101 18.904C18.4635 18.9024 17.2684 18.4065 16.387 17.525C15.5055 16.6436 15.0096 15.4485 15.008 14.202C15.0096 12.9555 15.5055 11.7604 16.387 10.879C17.2684 9.99751 18.4635 9.50161 19.71 9.5C20.9567 9.50131 22.1519 9.99711 23.0334 10.8786C23.9149 11.7601 24.4107 12.9554 24.412 14.202C24.4107 15.4486 23.9149 16.6439 23.0334 17.5254Z" fill="#314659" stroke="#6C7A87"/>
</svg>
